<svg xmlns="http://www.w3.org/2000/svg" version="1.1" viewBox="1.8709701299667358 2.450000047683716 995.3890380859375 578.2913208007812" width="999.00" height="582.00">
<path fill="#2e2c2a" d="&#10;  M 433.56 25.00&#10;  C 433.17 25.19 432.82 25.47 432.68 25.91&#10;  Q 431.13 30.74 428.94 35.15&#10;  Q 424.18 44.76 418.05 59.58&#10;  C 414.30 68.63 409.87 77.79 406.19 87.04&#10;  Q 403.71 93.29 400.64 99.14&#10;  C 399.66 101.01 399.09 103.17 398.19 105.12&#10;  Q 393.35 115.67 388.72 126.92&#10;  C 385.75 134.14 382.05 141.52 379.10 148.82&#10;  Q 377.06 153.86 374.53 159.14&#10;  Q 372.54 163.31 369.96 169.91&#10;  Q 367.33 176.65 363.49 184.19&#10;  Q 360.40 190.25 357.21 198.55&#10;  C 353.35 208.58 348.28 218.57 344.12 228.50&#10;  C 343.08 230.99 342.43 233.83 341.31 236.12&#10;  C 336.48 246.03 332.21 255.32 328.26 265.27&#10;  Q 326.05 270.84 323.54 276.33&#10;  Q 320.23 283.55 317.15 290.92&#10;  C 311.86 303.56 306.32 315.81 300.90 327.90&#10;  Q 298.17 334.00 293.06 346.29&#10;  Q 289.06 355.92 284.05 366.87&#10;  Q 281.47 372.51 274.17 390.55&#10;  Q 272.28 395.24 269.93 399.99&#10;  C 267.83 404.25 266.42 408.76 264.56 413.17&#10;  Q 257.93 428.80 250.73 445.02&#10;  Q 237.30 475.26 228.96 494.88&#10;  Q 224.94 504.34 220.97 513.20&#10;  Q 214.16 528.41 208.00 543.37&#10;  C 206.95 545.92 205.57 548.23 204.47 550.73&#10;  Q 198.22 564.87 192.32 579.66&#10;  Q 191.90 580.71 190.77 580.71&#10;  Q 98.17 580.65 6.55 580.50&#10;  Q 5.03 580.50 3.44 580.34&#10;  Q 0.54 580.05 3.00 578.49&#10;  Q 6.97 575.97 11.44 574.05&#10;  Q 15.17 572.45 19.95 569.95&#10;  Q 32.91 563.19 46.24 556.42&#10;  Q 79.17 539.71 114.70 521.91&#10;  C 116.97 520.77 118.12 519.60 119.08 517.24&#10;  C 125.95 500.48 133.57 483.53 140.59 466.53&#10;  C 146.16 453.02 152.53 439.32 157.97 426.23&#10;  Q 162.13 416.25 166.71 405.88&#10;  C 172.22 393.40 176.91 380.97 182.22 368.95&#10;  C 196.48 336.63 210.00 303.76 224.33 271.87&#10;  Q 226.36 267.36 228.25 262.49&#10;  C 229.91 258.22 232.15 254.21 233.85 250.08&#10;  C 239.34 236.70 245.42 223.88 251.03 210.86&#10;  Q 260.43 189.02 269.05 169.48&#10;  Q 275.10 155.77 278.71 147.10&#10;  Q 281.49 140.44 284.76 133.37&#10;  C 289.05 124.08 292.68 114.62 297.00 105.06&#10;  C 299.90 98.61 302.48 92.18 305.31 85.66&#10;  Q 316.55 59.81 328.02 33.75&#10;  Q 335.46 16.82 340.82 3.71&#10;  A 2.05 2.04 11.2 0 1 342.71 2.45&#10;  L 524.50 2.52&#10;  Q 525.88 2.52 526.43 3.79&#10;  Q 533.04 19.09 540.25 35.29&#10;  Q 541.73 38.59 543.01 41.78&#10;  C 544.20 44.72 545.77 47.48 546.96 50.39&#10;  C 552.54 64.08 558.74 77.00 564.65 90.65&#10;  Q 573.66 111.47 580.76 126.78&#10;  Q 584.81 135.51 588.60 144.17&#10;  Q 594.65 157.98 601.24 172.98&#10;  Q 604.51 180.43 607.77 187.46&#10;  C 613.81 200.49 619.40 214.03 625.35 226.76&#10;  Q 631.33 239.56 636.71 252.19&#10;  A 2.35 2.35 0.0 0 0 638.87 253.62&#10;  L 995.95 253.68&#10;  A 1.27 1.26 -90.0 0 1 997.21 254.95&#10;  L 997.26 309.69&#10;  A 0.81 0.80 -4.7 0 1 996.58 310.48&#10;  Q 995.26 310.68 993.96 310.68&#10;  Q 827.70 310.76 665.31 310.71&#10;  A 1.03 1.03 0.0 0 0 664.36 312.15&#10;  Q 667.45 319.26 670.66 326.05&#10;  Q 673.91 332.94 676.84 340.09&#10;  Q 680.31 348.56 684.16 357.07&#10;  Q 691.88 374.19 699.34 392.40&#10;  C 700.28 394.70 701.64 396.82 702.57 399.15&#10;  Q 705.59 406.74 708.55 413.29&#10;  C 713.14 423.49 717.46 433.94 721.99 444.00&#10;  Q 725.74 452.30 729.27 460.64&#10;  Q 737.94 481.08 746.86 500.70&#10;  C 749.70 506.96 752.16 513.60 755.22 519.95&#10;  A 3.10 3.08 0.4 0 0 756.63 521.37&#10;  Q 780.89 533.21 805.75 545.50&#10;  Q 815.70 550.42 825.79 555.60&#10;  C 827.45 556.46 829.27 557.07 830.91 557.94&#10;  Q 847.12 566.54 867.54 576.38&#10;  Q 869.35 577.25 871.00 578.32&#10;  Q 874.03 580.30 870.42 580.49&#10;  Q 868.72 580.58 867.14 580.58&#10;  Q 781.06 580.80 689.75 580.72&#10;  Q 685.99 580.72 682.78 580.43&#10;  A 2.10 2.10 0.0 0 1 681.05 579.19&#10;  C 678.35 573.06 676.01 566.93 673.23 560.99&#10;  Q 667.69 549.14 662.09 536.59&#10;  Q 657.45 526.19 653.02 516.22&#10;  Q 637.62 481.64 623.63 450.55&#10;  Q 622.70 448.49 621.81 446.46&#10;  C 619.43 440.99 617.57 435.54 614.69 430.07&#10;  C 612.44 425.81 610.97 421.22 608.92 416.80&#10;  C 603.42 404.93 598.38 392.81 593.02 381.21&#10;  Q 590.75 376.29 588.57 371.09&#10;  C 583.00 357.82 576.64 344.96 571.10 331.68&#10;  C 568.52 325.49 565.29 319.48 562.73 313.05&#10;  Q 559.03 303.74 554.95 295.21&#10;  C 551.90 288.86 549.34 282.22 546.56 275.96&#10;  Q 531.91 242.85 517.16 209.77&#10;  Q 512.50 199.31 508.07 189.24&#10;  Q 504.58 181.32 500.62 172.96&#10;  Q 497.24 165.81 494.25 158.72&#10;  Q 491.36 151.85 487.97 144.76&#10;  Q 486.45 141.59 484.99 138.11&#10;  Q 478.14 121.77 472.08 108.65&#10;  C 469.01 102.00 466.50 95.37 463.35 88.74&#10;  Q 459.21 80.01 455.07 70.31&#10;  Q 452.66 64.68 450.11 59.53&#10;  C 447.75 54.76 446.04 49.87 443.70 44.98&#10;  Q 438.98 35.12 434.37 25.28&#10;  A 0.60 0.60 0.0 0 0 433.56 25.00&#10;  Z"/>
<path fill="#2e2c2a" d="&#10;  M 380.38 428.57&#10;  Q 372.73 411.51 365.11 393.27&#10;  C 363.26 388.85 360.95 384.56 359.26 380.07&#10;  C 358.09 376.97 356.39 374.22 355.33 371.19&#10;  C 353.38 365.61 350.56 360.42 348.33 354.87&#10;  Q 341.78 338.52 334.05 323.23&#10;  C 332.90 320.95 332.32 318.48 333.24 315.96&#10;  C 336.34 307.54 339.93 299.40 343.28 291.06&#10;  C 347.92 279.52 352.68 267.95 356.52 256.16&#10;  A 2.11 2.10 8.9 0 1 358.53 254.70&#10;  L 404.22 254.73&#10;  A 2.26 2.23 75.6 0 1 406.19 255.91&#10;  C 409.40 261.87 411.44 268.14 414.08 274.12&#10;  Q 428.09 305.92 437.76 329.29&#10;  Q 443.09 342.16 448.65 354.53&#10;  C 450.18 357.95 451.29 361.60 452.82 365.12&#10;  Q 463.22 389.14 472.88 412.52&#10;  Q 475.83 419.68 479.20 427.35&#10;  Q 482.50 434.83 485.42 442.18&#10;  C 490.07 453.90 495.46 465.36 500.22 477.02&#10;  Q 506.63 492.73 512.89 507.06&#10;  Q 516.10 514.42 518.97 521.52&#10;  Q 522.27 529.69 525.07 536.21&#10;  Q 534.35 557.73 543.76 579.64&#10;  Q 544.07 580.36 543.30 580.43&#10;  Q 542.03 580.54 540.74 580.54&#10;  Q 497.01 580.62 448.51 580.58&#10;  Q 446.99 580.57 445.67 580.00&#10;  Q 445.22 579.81 445.06 579.35&#10;  C 441.53 569.32 436.97 560.07 432.87 550.31&#10;  Q 426.06 534.08 418.65 517.29&#10;  Q 412.99 504.45 407.60 491.49&#10;  A 1.75 1.73 78.5 0 0 406.00 490.42&#10;  L 274.54 490.29&#10;  A 0.76 0.75 89.6 0 1 273.79 489.54&#10;  L 273.67 431.25&#10;  A 1.06 0.97 0.3 0 1 274.74 430.28&#10;  L 379.25 430.30&#10;  A 1.23 1.23 0.0 0 0 380.38 428.57&#10;  Z"/>
</svg>